<svg xmlns="http://www.w3.org/2000/svg" xmlns:xlink="http://www.w3.org/1999/xlink" width="224.110229" height="224.110214" viewBox="0 0 224.11 224.11"><path d="M0 0L200 0L200 200L0 200L0 0Z" fill="transparent" fill-opacity="1.000000" transform="matrix(1 0 0 1 12.0551 12.0551)"/><path d="M0 0L200 0L200 200L0 200L0 0Z" fill="transparent" fill-opacity="1.000000" transform="matrix(1 0 0 1 12.0551 12.0551)"/><path d="M67.4954 33.7477C67.4954 52.3861 52.3861 67.4954 33.7477 67.4954C15.1094 67.4954 0 52.3861 0 33.7477C0 15.1094 15.1094 0 33.7477 0C52.3861 0 67.4954 15.1094 67.4954 33.7477" fill="#FF0000" fill-opacity="0.501961" transform="matrix(1 0 0 1 76.5072 61.4335)"/><path d="M67.4954 33.7477C67.4954 52.3861 52.3861 67.4954 33.7477 67.4954C15.1094 67.4954 0 52.3861 0 33.7477C0 15.1094 15.1094 0 33.7477 0C52.3861 0 67.4954 15.1094 67.4954 33.7477" fill="#FF0000" fill-opacity="0.501961" transform="matrix(1 0 0 1 76.5072 61.4335)"/><path d="M67.4954 33.7477C67.4954 52.3861 52.3861 67.4954 33.7477 67.4954C15.1094 67.4954 0 52.3861 0 33.7477C0 15.1094 15.1094 0 33.7477 0C52.3861 0 67.4954 15.1094 67.4954 33.7477" fill="#00FF00" fill-opacity="0.501961" transform="matrix(1 0 0 1 59.02 95.1812)"/><path d="M67.4954 33.7477C67.4954 52.3861 52.3861 67.4954 33.7477 67.4954C15.1094 67.4954 0 52.3861 0 33.7477C0 15.1094 15.1094 0 33.7477 0C52.3861 0 67.4954 15.1094 67.4954 33.7477" fill="#00FF00" fill-opacity="0.501961" transform="matrix(1 0 0 1 59.02 95.1812)"/><path d="M67.4954 33.7477C67.4954 52.3861 52.3861 67.4954 33.7477 67.4954C15.1094 67.4954 0 52.3861 0 33.7477C0 15.1094 15.1094 0 33.7477 0C52.3861 0 67.4954 15.1094 67.4954 33.7477" fill="#0000FF" fill-opacity="0.501961" transform="matrix(1 0 0 1 97.5948 95.1812)"/><path d="M67.4954 33.7477C67.4954 52.3861 52.3861 67.4954 33.7477 67.4954C15.1094 67.4954 0 52.3861 0 33.7477C0 15.1094 15.1094 0 33.7477 0C52.3861 0 67.4954 15.1094 67.4954 33.7477" fill="#0000FF" fill-opacity="0.501961" transform="matrix(1 0 0 1 97.5948 95.1812)"/></svg>